<?xml version="1.0" encoding="UTF-8"?><svg id="a" xmlns="http://www.w3.org/2000/svg" viewBox="0 0 2002 532"><path d="M385.31541,222.42304l-.00005-206.47563c0-8.25423-6.69137-14.9456-14.9456-14.9456h-71.158l.00005,284.55693c0,11.41295,13.79874,17.12857,21.86891,9.0584l58.60652-58.6065c3.60366-3.60366,5.62817-8.49127,5.62817-13.58761Z" style="fill:#ff0036;"/><path d="M299.21177,1.0001l-135.31765-.0001c-5.09634,0-9.98396,2.02451-13.58761,5.62817l-58.60651,58.60649c-8.07017,8.07017-2.35455,21.86891,9.05839,21.86892l198.45337,.0001V1.0001Z" style="fill:#ffc900;"/><path d="M222.423,385.31541l-206.4757-.00014c-8.25423,0-14.94559-6.69138-14.94559-14.94561l.00003-71.15799,284.55701,.00018c11.41295,0,17.12857,13.79875,9.05839,21.86892l-58.60654,58.60648c-3.60366,3.60366-8.49127,5.62817-13.58761,5.62816Z" style="fill:#1904da;"/><path d="M1.00004,299.21167l-.00004-135.31763c0-5.09634,2.02451-9.98396,5.62818-13.58761l58.60654-58.60648c8.07018-8.07017,21.86891-2.35454,21.86891,9.0584v198.45336l-86.10358-.00004Z" style="fill:#08b1d5;"/><path d="M1051.97485,19.95703c-95.5022,0-173.19922,77.69727-173.19922,173.20166s77.69702,173.19946,173.19922,173.19946l70.33771-70.33765h-70.33771c-56.71741,0-102.86176-46.14404-102.86176-102.86182s46.14435-102.86401,102.86176-102.86401,102.86194,46.14404,102.86194,102.86401v338.49976h70.33752V193.15869c0-95.50439-77.69708-173.20166-173.19946-173.20166Zm-387.40601,0c-95.50226,0-173.1994,77.69702-173.1994,173.2019s77.69714,173.19922,173.1994,173.19922h173.1994V193.15894c0-95.50488-77.69714-173.2019-173.1994-173.2019Zm102.86182,276.06372h-102.86182c-56.71753,0-102.86182-46.14429-102.86182-102.86182s46.14429-102.8645,102.86182-102.8645,102.86182,46.14453,102.86182,102.8645v102.86182ZM1827.80054,19.95703c-95.5022,0-173.19922,77.69702-173.19922,173.2019s77.69702,173.19922,173.19922,173.19922h173.19946V193.15894c0-95.50488-77.69702-173.2019-173.19946-173.2019Zm102.86182,276.06372h-102.86182c-56.71741,0-102.86182-46.14429-102.86182-102.86182s46.14441-102.8645,102.86182-102.8645,102.86182,46.14453,102.86182,102.8645v102.86182Zm-388.771-102.86182c0,56.74243-46.16455,102.90698-102.90698,102.90698s-102.90698-46.16455-102.90698-102.90698V30.62231h-70.36853V193.15894c0,95.54419,77.73132,173.27539,173.27551,173.27539s173.27551-77.7312,173.27551-173.27539V30.62231h-70.36853V193.15894Z" style="fill:#ffffff;"/></svg>